<?xml version="1.0" standalone="no"?>
<!DOCTYPE svg PUBLIC "-//W3C//DTD SVG 1.1//EN" "http://www.w3.org/Graphics/SVG/1.1/DTD/svg11.dtd" >
<svg>
<metadata>
Created by FontForge 20090622 at Sat Jul 18 07:44:25 2015
 By deploy user
Copyright (c) 1989, 1990 Adobe Systems Incorporated.  All Rights Reserved.Avant Garde Gothic is a registered trademark of International Typeface Corporation.
</metadata>
<defs>
<font id="AvantGarde-CondBold" horiz-adv-x="500" >
  <font-face 
    font-family="AvantGarde CondMedium"
    font-weight="700"
    font-stretch="condensed"
    units-per-em="1000"
    panose-1="2 11 8 6 0 0 0 0 0 0"
    ascent="766"
    descent="-234"
    x-height="568"
    cap-height="724"
    bbox="-167 -234 1000 1001"
    underline-thickness="50"
    underline-position="-50"
    unicode-range="U+0020-U+FB02"
  />
<missing-glyph horiz-adv-x="278" 
 />
    <glyph glyph-name=".notdef" horiz-adv-x="278" 
 />
    <glyph glyph-name=".null" horiz-adv-x="0" 
 />
    <glyph glyph-name="nonmarkingreturn" horiz-adv-x="333" 
 />
    <glyph glyph-name="space" unicode=" " horiz-adv-x="278" 
 />
    <glyph glyph-name="space" unicode="&#xa0;" horiz-adv-x="278" 
 />
    <glyph glyph-name="exclam" unicode="!" horiz-adv-x="278" 
d="M213 198h-148v526h148v-526zM213 0h-148v152h148v-152z" />
    <glyph glyph-name="quotedbl" unicode="&#x22;" horiz-adv-x="333" 
d="M323 444h-124v280h124v-280zM134 444h-124v280h124v-280z" />
    <glyph glyph-name="numbersign" unicode="#" horiz-adv-x="556" 
d="M504 300l-4 -96h-90l-28 -204h-104l28 204h-94l-28 -204h-103l28 204h-87l4 96h97l17 124h-88l4 96h97l28 204h104l-28 -204h94l28 204h103l-28 -204h80l-4 -96h-89l-17 -124h80zM337 424h-94l-16 -124h94z" />
    <glyph glyph-name="dollar" unicode="$" horiz-adv-x="556" 
d="M488 514h-148q-4 28 -24 48t-47 20q-26 0 -44.5 -16.5t-18.5 -42.5q0 -21 16.5 -37t43.5 -28t59 -24.5t64 -31t59 -42.5t43.5 -63t16.5 -89q0 -80 -46 -138t-124 -62v-80h-116v80q-82 4 -129 66.5t-45 147.5h152q1 -40 23 -64t62 -24q31 0 51 21t20 53q0 30 -22 51.5
t-55 33.5t-72 30t-72 38.5t-55 61t-22 95.5q0 78 44 130.5t120 59.5v72h116v-72q70 -14 108.5 -67t41.5 -127z" />
    <glyph glyph-name="percent" unicode="%" horiz-adv-x="889" 
d="M597 176q0 -42 20.5 -66t51.5 -24t51.5 24t20.5 66t-20.5 66t-51.5 24t-51.5 -24t-20.5 -66zM493 176q0 88 49 138t127 50t127 -50t49 -138t-49 -138t-127 -50t-127 50t-49 138zM44 548q0 88 49 138t127 50t127 -50t49 -138t-49 -138t-127 -50t-127 50t-49 138zM148 548
q0 -42 20.5 -66t51.5 -24t51.5 24t20.5 66t-20.5 66t-51.5 24t-51.5 -24t-20.5 -66zM296 -12h-78l372 748h78z" />
    <glyph glyph-name="ampersand" unicode="&#x26;" horiz-adv-x="667" 
d="M352 382l66 -90l94 168l126 -64l-126 -226l130 -170h-182l-34 56q-66 -68 -167 -68q-100 0 -162.5 61.5t-62.5 150.5q0 83 35 139.5t97 82.5q-26 25 -44 61t-18 73q0 85 55 132.5t130 47.5q76 0 125.5 -52t49.5 -120q0 -58 -31.5 -105t-80.5 -77zM340 170l-96 134
q-22 -13 -38 -35t-16 -45q0 -38 22.5 -63t59.5 -25q38 0 68 34zM287 614q-20 0 -34.5 -16t-14.5 -36q0 -35 34 -80q58 41 58 82q0 20 -12.5 35t-30.5 15z" />
    <glyph glyph-name="quotesingle" unicode="'" horiz-adv-x="222" 
d="M173 444h-124v280h124v-280z" />
    <glyph glyph-name="parenleft" unicode="(" horiz-adv-x="389" 
d="M345 -72v-138q-122 50 -212.5 181.5t-90.5 294.5t90.5 294.5t212.5 181.5v-138q-84 -54 -131.5 -144.5t-47.5 -193.5t47.5 -193.5t131.5 -144.5z" />
    <glyph glyph-name="parenright" unicode=")" horiz-adv-x="389" 
d="M44 -210v138q84 54 131.5 144.5t47.5 193.5t-47.5 193.5t-131.5 144.5v138q122 -50 212.5 -181.5t90.5 -294.5t-90.5 -294.5t-212.5 -181.5z" />
    <glyph glyph-name="asterisk" unicode="*" horiz-adv-x="444" 
d="M30 580l52 94l118 -104l2 2l-34 152h108l-34 -151l2 -2l118 103l52 -94l-144 -44v-2l144 -46l-56 -98l-114 108l-2 -2l34 -152h-108l34 152l-2 2l-114 -108l-56 98l144 46v2z" />
    <glyph glyph-name="plus" unicode="+" horiz-adv-x="600" 
d="M239 314v192h122v-192h192v-122h-192v-192h-122v192h-192v122h192z" />
    <glyph glyph-name="comma" unicode="," horiz-adv-x="278" 
d="M120 -102h-106l72 250h126z" />
    <glyph glyph-name="hyphen" unicode="-" horiz-adv-x="333" 
d="M291 221h-249v126h249v-126z" />
    <glyph glyph-name="hyphen" unicode="&#xad;" horiz-adv-x="333" 
d="M291 221h-249v126h249v-126z" />
    <glyph glyph-name="period" unicode="." horiz-adv-x="278" 
d="M206 0h-134v148h134v-148z" />
    <glyph glyph-name="slash" unicode="/" horiz-adv-x="278" 
d="M85 -12h-123l230 748h123z" />
    <glyph glyph-name="zero" unicode="0" horiz-adv-x="556" 
d="M184 362q0 -112 26.5 -169t67.5 -57t67.5 57t26.5 169t-26.5 169t-67.5 57t-67.5 -57t-26.5 -169zM36 362q0 178 64 276t178 98t178 -98t64 -276t-64 -276t-178 -98t-178 98t-64 276z" />
    <glyph glyph-name="one" unicode="1" horiz-adv-x="556" 
d="M224 590h-110v134h252v-724h-142v590z" />
    <glyph glyph-name="two" unicode="2" horiz-adv-x="556" 
d="M505 140v-140h-453v148l73.5 73l61 60.5l48 47.5t38 38.5l27.5 29.5t21 25l12.5 19.5t8 19.5l3 17.5t1.5 20.5q0 40 -22 62.5t-51 22.5q-77 0 -77 -100h-152q0 125 63 188.5t167 63.5q100 0 164 -67t64 -173q0 -35 -7.5 -64.5t-16.5 -50t-35.5 -51.5t-45 -49.5
l-66.5 -64.5l-79 -76h253z" />
    <glyph glyph-name="three" unicode="3" horiz-adv-x="556" 
d="M206 320v134h38q90 0 90 70q0 32 -18 52t-53 20q-31 0 -47 -23.5t-16 -59.5h-156q1 107 62.5 165t165.5 58q100 0 159 -55t59 -147q0 -54 -18 -87t-66 -46v-2q58 -16 86 -70.5t28 -126.5q0 -82 -64.5 -148t-171.5 -66q-118 0 -183.5 65.5t-68.5 175.5h156q0 -47 24 -74
t69 -27q36 0 59.5 25t23.5 61q0 53 -30 79.5t-80 26.5h-48z" />
    <glyph glyph-name="four" unicode="4" horiz-adv-x="556" 
d="M294 504l-126 -222h128v222h-2zM438 724v-442h72v-134h-72v-148h-142v148h-262v134l258 442h146z" />
    <glyph glyph-name="five" unicode="5" horiz-adv-x="556" 
d="M50 218h152q0 -34 19.5 -62t54.5 -28q46 0 66 31.5t20 101.5q0 123 -80 123q-27 0 -46 -17.5t-26 -46.5h-148l16 404h400v-126h-264l-4 -126h2q18 30 43.5 41t64.5 11q87 0 142.5 -66t55.5 -187q0 -135 -61.5 -209t-182.5 -74q-209 0 -224 230z" />
    <glyph glyph-name="six" unicode="6" horiz-adv-x="556" 
d="M508 530h-148q-16 66 -76 66q-45 0 -68 -45t-26 -113l2 -2q39 60 120 60q94 0 151 -70t57 -170q0 -120 -63.5 -194t-172.5 -74q-122 0 -186 84t-64 270q0 209 70 301.5t187 92.5q90 0 151.5 -53.5t65.5 -152.5zM200 242q0 -52 22 -83t60 -31t60 31t22 83t-22 83t-60 31
t-60 -31t-22 -83z" />
    <glyph glyph-name="seven" unicode="7" horiz-adv-x="556" 
d="M338 590h-282v134h444v-124l-208 -600h-162z" />
    <glyph glyph-name="eight" unicode="8" horiz-adv-x="556" 
d="M278 736q92 0 151.5 -55.5t59.5 -145.5q0 -97 -76 -135v-2q54 -18 83 -66t29 -110q0 -113 -68.5 -173.5t-178.5 -60.5t-178.5 60.5t-68.5 173.5q0 62 29 110t83 66v2q-76 38 -76 135q0 90 59.5 145.5t151.5 55.5zM187 222q0 -40 26 -67t65 -27t65 27t26 67
q0 35 -26.5 60.5t-64.5 25.5t-64.5 -25.5t-26.5 -60.5zM211 515q0 -33 18.5 -53t48.5 -20t48.5 20t18.5 53q0 36 -18.5 58.5t-48.5 22.5t-48.5 -22.5t-18.5 -58.5z" />
    <glyph glyph-name="nine" unicode="9" horiz-adv-x="556" 
d="M42 188h152q14 -60 75 -60q91 0 97 187h-2q-13 -49 -46 -68t-90 -19q-87 0 -142.5 67.5t-55.5 176.5q0 121 64 192.5t172 71.5q119 0 187.5 -93.5t68.5 -279.5q0 -375 -255 -375q-95 0 -156.5 53t-68.5 147zM186 482q0 -54 25 -84t59 -30t59 30t25 84t-25 84t-59 30
t-59 -30t-25 -84z" />
    <glyph glyph-name="colon" unicode=":" horiz-adv-x="278" 
d="M206 342h-134v148h134v-148zM206 0h-134v148h134v-148z" />
    <glyph glyph-name="semicolon" unicode=";" horiz-adv-x="278" 
d="M120 -102h-106l72 250h126zM206 342h-134v148h134v-148z" />
    <glyph glyph-name="less" unicode="&#x3c;" horiz-adv-x="600" 
d="M553 125v-134l-506 202v120l506 202v-134l-344 -127v-2z" />
    <glyph glyph-name="equal" unicode="=" horiz-adv-x="600" 
d="M553 424v-122h-506v122h506zM553 204v-122h-506v122h506z" />
    <glyph glyph-name="greater" unicode="&#x3e;" horiz-adv-x="600" 
d="M47 -9v134l344 127v2l-344 127v134l506 -202v-120z" />
    <glyph glyph-name="question" unicode="?" 
d="M180 500h-152v36q0 97 58.5 148.5t160.5 51.5q91 0 153 -57.5t62 -148.5q0 -44 -16.5 -80t-40 -59t-47 -43t-40 -43t-16.5 -49v-64h-148v112q0 40 24 75.5t52 56.5t52 47.5t24 52.5q0 60 -66 60q-26 0 -43 -18t-17 -53v-25zM302 0h-148v152h148v-152z" />
    <glyph glyph-name="at" unicode="@" horiz-adv-x="800" 
d="M409 446q-40 0 -67.5 -33t-27.5 -74q0 -36 19.5 -58.5t53.5 -22.5q44 0 71.5 30t27.5 74q0 37 -21 60.5t-56 23.5zM514 494l9 48h92l-44 -239q-5 -30 -5 -35q0 -18 13 -18q35 0 63 38t28 112q0 117 -70.5 180.5t-185.5 63.5t-189.5 -79.5t-74.5 -203.5q0 -131 73.5 -206
t207.5 -75q118 0 176 60h103q-107 -152 -287 -152q-168 0 -273.5 104t-105.5 269q0 168 104.5 271.5t268.5 103.5q135 0 237 -85t102 -219q0 -65 -20.5 -117.5t-50 -83t-65.5 -51.5t-63.5 -28.5t-46.5 -7.5q-24 0 -39 12.5t-16 35.5l-2 2q-41 -50 -105 -50q-58 0 -103 49.5
t-45 129.5q0 92 54.5 160.5t140.5 68.5q78 0 119 -58z" />
    <glyph glyph-name="A" unicode="A" horiz-adv-x="556" 
d="M323 278l-46 234h-2l-46 -234h94zM344 724l210 -724h-154l-38 138h-170l-36 -138h-154l202 724h140z" />
    <glyph glyph-name="B" unicode="B" horiz-adv-x="556" 
d="M63 0v724h224q101 0 152.5 -50t51.5 -132q0 -65 -32 -102t-90 -44v-2q151 -23 151 -182q0 -90 -56 -151t-155 -61h-246zM215 310v-176h57q46 0 70 23.5t22 62.5q2 39 -22 64.5t-70 25.5h-57zM215 590v-146h35q85 0 85 74q0 72 -85 72h-35z" />
    <glyph glyph-name="C" unicode="C" horiz-adv-x="611" 
d="M569 437h-156q-3 91 -27.5 125t-72.5 34q-57 0 -90.5 -56t-33.5 -178t33.5 -178t90.5 -56q37 0 60 23.5t30.5 54.5t9.5 75h156q-1 -128 -71.5 -210.5t-196.5 -82.5q-125 0 -196.5 95t-71.5 279t71.5 279t196.5 95q130 0 200 -84t68 -215z" />
    <glyph glyph-name="D" unicode="D" horiz-adv-x="611" 
d="M62 0v724h228q135 0 211 -103t76 -259t-76 -259t-211 -103h-228zM214 584v-444h74q64 0 98.5 60.5t34.5 161.5t-34.5 161.5t-98.5 60.5h-74z" />
    <glyph glyph-name="E" unicode="E" 
d="M430 0h-360v724h360v-140h-208v-134h208v-140h-208v-170h208v-140z" />
    <glyph glyph-name="F" unicode="F" horiz-adv-x="444" 
d="M58 724h342v-140h-190v-140h190v-140h-190v-304h-152v724z" />
    <glyph glyph-name="G" unicode="G" horiz-adv-x="611" 
d="M569 468h-156q-1 56 -30 92t-82 36q-48 0 -80 -57t-32 -177t32 -177t80 -57q60 0 86.5 38.5t25.5 89.5h-127v140h283v-142q0 -116 -72 -191t-196 -75q-125 0 -196.5 95t-71.5 279t71.5 279t196.5 95q115 0 188 -72.5t80 -195.5z" />
    <glyph glyph-name="H" unicode="H" horiz-adv-x="611" 
d="M215 0h-152v724h152v-274h181v274h152v-724h-152v310h-181v-310z" />
    <glyph glyph-name="I" unicode="I" horiz-adv-x="278" 
d="M63 724h152v-724h-152v724z" />
    <glyph glyph-name="J" unicode="J" 
d="M278 724h152v-532q0 -98 -58 -151t-155 -53t-155 53t-58 151v42h152v-14q0 -54 13.5 -73t47.5 -19t47.5 19t13.5 73v504z" />
    <glyph glyph-name="K" unicode="K" horiz-adv-x="556" 
d="M217 464l160 260h168l-190 -284l202 -440h-160l-136 318h-2l-44 -62v-256h-152v724h152v-260h2z" />
    <glyph glyph-name="L" unicode="L" horiz-adv-x="444" 
d="M70 0v724h152v-584h194v-140h-346z" />
    <glyph glyph-name="M" unicode="M" horiz-adv-x="778" 
d="M390 238l106 486h216v-724h-134v562h-2l-132 -562h-110l-132 562h-2v-562h-134v724h216l106 -486h2z" />
    <glyph glyph-name="N" unicode="N" horiz-adv-x="611" 
d="M410 724h134v-724h-128l-214 482h-2v-482h-134v724h142l200 -444h2v444z" />
    <glyph glyph-name="O" unicode="O" horiz-adv-x="611" 
d="M33 362q0 174 69.5 274t202.5 100t202.5 -100t69.5 -274t-69.5 -274t-202.5 -100t-202.5 100t-69.5 274zM189 362q0 -125 28 -179.5t88 -54.5t88 54.5t28 179.5t-28 179.5t-88 54.5t-88 -54.5t-28 -179.5z" />
    <glyph glyph-name="P" unicode="P" horiz-adv-x="556" 
d="M70 724h210q108 0 175 -62.5t67 -173.5t-67 -173.5t-175 -62.5h-58v-252h-152v724zM222 584v-192h56q88 0 88 96t-88 96h-56z" />
    <glyph glyph-name="Q" unicode="Q" horiz-adv-x="611" 
d="M189 362q0 -25 2 -61q34 19 79 19q35 0 67 -16.5t73 -65.5q11 47 11 124q0 125 -28 179.5t-88 54.5t-88 -54.5t-28 -179.5zM574 132v-140q-24 -4 -37 -4q-63 0 -100 34q-57 -34 -132 -34q-133 0 -202.5 100t-69.5 274t69.5 274t202.5 100t202.5 -100t69.5 -274
q0 -139 -44 -230q7 -4 14 -4q9 0 27 4zM238 204q-14 0 -27 -5q26 -71 94 -71q33 0 54 16q-41 60 -121 60z" />
    <glyph glyph-name="R" unicode="R" horiz-adv-x="556" 
d="M215 584v-180h50q98 0 98 90t-98 90h-50zM63 0v724h240q95 0 155.5 -68.5t60.5 -164.5q0 -44 -14.5 -84.5t-50 -74t-85.5 -40.5l182 -292h-174l-160 282h-2v-282h-152z" />
    <glyph glyph-name="S" unicode="S" horiz-adv-x="556" 
d="M34 228h152q2 -54 23.5 -80t70.5 -26q41 0 63.5 23t22.5 63q0 24 -17.5 42t-46 29.5t-62.5 23t-68 27t-62.5 37.5t-46 59t-17.5 86q0 103 61 163.5t166 60.5q103 0 161 -50t74 -156h-148q-2 37 -23 58.5t-58 21.5q-35 0 -56 -22.5t-21 -56.5q0 -26 17.5 -44t46 -29.5
t62.5 -22t68 -27.5t62.5 -40t46 -64.5t17.5 -97.5q0 -100 -68.5 -159t-176.5 -59q-243 0 -243 240z" />
    <glyph glyph-name="T" unicode="T" horiz-adv-x="444" 
d="M422 584h-124v-584h-152v584h-124v140h400v-140z" />
    <glyph glyph-name="U" unicode="U" horiz-adv-x="611" 
d="M397 724h152v-516q0 -102 -58.5 -161t-185.5 -59t-185.5 59t-58.5 161v516h152v-492q0 -55 21 -79.5t71 -24.5t71 24.5t21 79.5v492z" />
    <glyph glyph-name="V" unicode="V" horiz-adv-x="556" 
d="M405 724h142l-202 -724h-134l-202 724h148l122 -498h2z" />
    <glyph glyph-name="W" unicode="W" horiz-adv-x="833" 
d="M254 266l98 458h134l96 -458h2l92 458h152l-174 -724h-134l-102 500h-2l-100 -500h-134l-178 724h154l94 -458h2z" />
    <glyph glyph-name="X" unicode="X" horiz-adv-x="556" 
d="M529 724l-166 -332l192 -392h-160l-116 254l-118 -254h-160l194 392l-164 332h156l92 -202l92 202h158z" />
    <glyph glyph-name="Y" unicode="Y" 
d="M152 724l97 -286h2l97 286h156l-178 -428v-296h-152v296l-178 428h156z" />
    <glyph glyph-name="Z" unicode="Z" 
d="M278 584h-220v140h398v-140l-244 -444h244v-140h-420v134z" />
    <glyph glyph-name="bracketleft" unicode="[" horiz-adv-x="389" 
d="M328 -200h-266v924h266v-104h-146v-716h146v-104z" />
    <glyph glyph-name="backslash" unicode="\" horiz-adv-x="278" 
d="M316 -12h-123l-230 748h123z" />
    <glyph glyph-name="bracketright" unicode="]" horiz-adv-x="389" 
d="M61 724h266v-924h-266v104h146v716h-146v104z" />
    <glyph glyph-name="asciicircum" unicode="^" horiz-adv-x="600" 
d="M198 374h-125l164 350h124l166 -350h-126l-102 230z" />
    <glyph glyph-name="underscore" unicode="_" 
d="M500 -125h-500v50h500v-50z" />
    <glyph glyph-name="grave" unicode="`" horiz-adv-x="278" 
d="M-26 774h154l94 -148h-100z" />
    <glyph glyph-name="a" unicode="a" 
d="M308 218v132q0 96 -72 96q-71 0 -71 -162t71 -162q72 0 72 96zM442 0h-122v54h-2q-33 -66 -108 -66q-81 0 -130 74.5t-49 221.5q0 144 46 220t133 76q86 0 108 -70h2v58h122v-568z" />
    <glyph glyph-name="b" unicode="b" 
d="M192 336v-104q0 -54 19 -82t53 -28q38 0 54.5 39t16.5 123t-16.5 123t-54.5 39q-34 0 -53 -28t-19 -82zM180 0h-122v724h134v-210h2q18 66 96 66q87 0 133 -76t46 -220q0 -147 -49 -221.5t-130 -74.5q-78 0 -108 68h-2v-56z" />
    <glyph glyph-name="c" unicode="c" horiz-adv-x="444" 
d="M439 352h-142q-2 49 -17.5 75.5t-39.5 26.5q-33 0 -50 -38.5t-17 -131.5t17 -131.5t50 -38.5q50 0 57 102h142q-2 -88 -57 -158t-134 -70q-99 0 -158 78t-59 218t59 218t158 78q79 0 134 -70t57 -158z" />
    <glyph glyph-name="d" unicode="d" 
d="M308 212v152q0 82 -64 82q-37 0 -58 -33t-21 -119q0 -172 71 -172q38 0 55 20.5t17 69.5zM442 0h-122v64h-2q-7 -35 -37 -55.5t-71 -20.5q-81 0 -130 74.5t-49 221.5q0 144 46 220t133 76q69 0 102 -62h2v206h128v-724z" />
    <glyph glyph-name="e" unicode="e" 
d="M173 342h150v24q0 46 -18 75t-53 29q-36 0 -57.5 -29t-21.5 -73v-26zM457 246h-284v-32q0 -100 76 -100q55 0 70 70h134q-8 -58 -30 -98.5t-53 -60.5t-60 -28.5t-60 -8.5q-108 0 -163.5 81.5t-55.5 214.5t55.5 214.5t163.5 81.5q101 0 154 -74.5t53 -205.5v-54z" />
    <glyph glyph-name="f" unicode="f" horiz-adv-x="278" 
d="M276 724v-112h-40q-22 0 -31 -7.5t-9 -27.5v-9h80v-126h-74v-442h-134v442h-52v126h52v10q0 75 38 110.5t114 35.5h56z" />
    <glyph glyph-name="g" unicode="g" 
d="M40 -34h140q8 -17 20 -24.5t36 -7.5q43 0 59.5 25t16.5 91h-2q-21 -62 -100 -62q-93 0 -136 74.5t-43 221.5t43 221.5t136 74.5q41 0 68.5 -15t47.5 -53h2v56h114v-562q0 -93 -53.5 -145.5t-152.5 -52.5q-74 0 -130 42.5t-66 115.5zM308 204v152q0 49 -17 69.5t-55 20.5
q-71 0 -71 -172q0 -86 21 -119t58 -33q64 0 64 82z" />
    <glyph glyph-name="h" unicode="h" 
d="M192 724v-192h2q17 48 99 48q68 0 108.5 -42t40.5 -124v-414h-134v374q0 72 -55 72q-61 0 -61 -62v-384h-134v724h134z" />
    <glyph glyph-name="i" unicode="i" horiz-adv-x="278" 
d="M206 0h-134v568h134v-568zM206 612h-134v112h134v-112z" />
    <glyph glyph-name="j" unicode="j" horiz-adv-x="278" 
d="M14 -192v126h8q27 0 38.5 14t11.5 44v576h134v-598q0 -79 -39 -120.5t-113 -41.5h-40zM206 612h-134v112h134v-112z" />
    <glyph glyph-name="k" unicode="k" horiz-adv-x="444" 
d="M50 0v724h134v-350h2l110 194h150l-138 -208l142 -360h-144l-86 246h-2l-34 -62v-184h-134z" />
    <glyph glyph-name="l" unicode="l" horiz-adv-x="278" 
d="M72 0v724h134v-724h-134z" />
    <glyph glyph-name="m" unicode="m" horiz-adv-x="778" 
d="M198 0h-134v568h126v-66h2q22 78 114 78q81 0 108 -62q17 30 52.5 46t77.5 16q83 0 126.5 -51.5t43.5 -124.5v-404h-134v380q0 36 -14 51t-45 15q-65 0 -65 -58v-388h-134v380q0 36 -14 51t-45 15q-65 0 -65 -58v-388z" />
    <glyph glyph-name="n" unicode="n" 
d="M174 568v-54h2q16 33 42.5 49.5t74.5 16.5q68 0 108.5 -42t40.5 -124v-414h-134v374q0 72 -55 72q-61 0 -61 -62v-384h-134v568h116z" />
    <glyph glyph-name="o" unicode="o" 
d="M173 284q0 -95 20 -132.5t59 -37.5q37 0 56 37.5t19 132.5t-20 132.5t-59 37.5q-37 0 -56 -37.5t-19 -132.5zM31 284q0 130 56 213t163 83t163 -83t56 -213t-56 -213t-163 -83t-163 83t-56 213z" />
    <glyph glyph-name="p" unicode="p" 
d="M192 336v-104q0 -54 19 -82t53 -28q38 0 54.5 39t16.5 123t-16.5 123t-54.5 39q-34 0 -53 -28t-19 -82zM58 568h122v-54h2q29 66 108 66q81 0 130 -74.5t49 -221.5q0 -144 -46 -220t-133 -76q-69 0 -96 54h-2v-222h-134v748z" />
    <glyph glyph-name="q" unicode="q" 
d="M308 204v152q0 49 -17 69.5t-55 20.5q-71 0 -71 -172q0 -86 21 -119t58 -33q64 0 64 82zM316 568h126v-748h-132v230h-2q-28 -62 -98 -62q-87 0 -133 76t-46 220q0 147 49 221.5t130 74.5q40 0 70 -19t34 -47h2v54z" />
    <glyph glyph-name="r" unicode="r" horiz-adv-x="333" 
d="M58 568h122v-64h2q15 51 44 68.5t82 17.5h16v-162q-30 14 -54 14q-35 0 -56.5 -25t-21.5 -75v-342h-134v568z" />
    <glyph glyph-name="s" unicode="s" horiz-adv-x="444" 
d="M12 182h134q2 -32 23 -52t54 -20q55 0 55 57q0 22 -19 36.5t-47.5 20.5t-61.5 18.5t-61.5 29t-47.5 53.5t-19 90q0 74 50.5 119.5t143.5 45.5q177 0 190 -180h-134q-3 64 -60 64q-23 0 -35.5 -12t-12.5 -32q0 -22 19 -36t47.5 -19.5t61.5 -17t61.5 -28t47.5 -53.5t19 -92
q0 -80 -57 -133t-144 -53q-86 0 -142 48.5t-65 145.5z" />
    <glyph glyph-name="t" unicode="t" horiz-adv-x="278" 
d="M206 568h60v-126h-60v-442h-134v442h-60v126h60v108h134v-108z" />
    <glyph glyph-name="u" unicode="u" 
d="M320 0v68h-2q-4 -29 -32 -54.5t-75 -25.5q-69 0 -111 43.5t-42 120.5v416h134v-373q0 -73 50 -73q66 0 66 73v373h134v-568h-122z" />
    <glyph glyph-name="v" unicode="v" horiz-adv-x="444" 
d="M169 0l-164 568h136l86 -364h2l74 364h136l-148 -568h-122z" />
    <glyph glyph-name="w" unicode="w" horiz-adv-x="667" 
d="M135 0l-134 568h138l60 -362h2l78 362h110l82 -362h2l54 362h138l-132 -568h-124l-72 364h-2l-72 -364h-128z" />
    <glyph glyph-name="x" unicode="x" 
d="M248 394l74 174h154l-146 -272l166 -296h-160l-88 198l-84 -198h-160l162 296l-146 272h158l68 -174h2z" />
    <glyph glyph-name="y" unicode="y" horiz-adv-x="444" 
d="M301 568h140l-216 -748h-136l68 214l-154 534h140l80 -328h2z" />
    <glyph glyph-name="z" unicode="z" horiz-adv-x="444" 
d="M396 0h-368v126l208 316h-188v126h348v-126l-204 -316h204v-126z" />
    <glyph glyph-name="braceleft" unicode="{" horiz-adv-x="389" 
d="M313 -112v-104h-102q-67 0 -100 37.5t-33 100.5v218q0 32 -15.5 51t-40.5 19v100q25 0 40.5 19t15.5 51v218q0 63 33 100.5t100 37.5h102v-104h-57q-30 0 -44 -15t-14 -50v-201q0 -27 -6 -47t-13.5 -30.5t-20.5 -16.5t-21.5 -8t-22.5 -3v-2q14 -1 22.5 -3t21.5 -8
t20.5 -16.5t13.5 -30.5t6 -47v-201q0 -35 14 -50t44 -15h57z" />
    <glyph glyph-name="bar" unicode="|" horiz-adv-x="222" 
d="M50 -12v748h122v-748h-122z" />
    <glyph glyph-name="braceright" unicode="}" horiz-adv-x="389" 
d="M76 632v104h102q67 0 100 -37.5t33 -100.5v-218q0 -32 15.5 -51t40.5 -19v-100q-25 0 -40.5 -19t-15.5 -51v-218q0 -63 -33 -100.5t-100 -37.5h-102v104h57q30 0 44 15t14 50v201q0 27 6 47t13.5 30.5t20.5 16.5t21.5 8t22.5 3v2q-14 1 -22.5 3t-21.5 8t-20.5 16.5
t-13.5 30.5t-6 47v201q0 35 -14 50t-44 15h-57z" />
    <glyph glyph-name="asciitilde" unicode="~" horiz-adv-x="600" 
d="M480 347l38 -104q-16 -24 -29.5 -38.5t-38 -28t-53.5 -13.5q-36 0 -106 27.5t-90 27.5q-43 0 -81 -59l-38 104q16 24 29.5 38.5t38 28t53.5 13.5q36 0 106 -27.5t90 -27.5q43 0 81 59z" />
    <glyph glyph-name="exclamdown" unicode="&#xa1;" horiz-adv-x="278" 
d="M65 370h148v-526h-148v526zM65 568h148v-152h-148v152z" />
    <glyph glyph-name="cent" unicode="&#xa2;" horiz-adv-x="556" 
d="M222 634v90h116v-90q142 -13 150 -214h-142q-6 45 -20.5 66.5t-43.5 21.5q-37 0 -54.5 -33t-17.5 -123q0 -87 19.5 -120.5t56.5 -33.5q26 0 41.5 25t18.5 63h142q-7 -201 -150 -214v-92h-116v92q-67 0 -113 72q-51 77 -51 202q0 143 41.5 209t122.5 79z" />
    <glyph glyph-name="sterling" unicode="&#xa3;" horiz-adv-x="556" 
d="M494 510h-152q-3 34 -27.5 54t-54.5 20q-34 0 -54 -22.5t-20 -56.5q0 -29 23 -71h149v-134h-95q29 -33 29 -79q0 -19 -18 -73h14q50 0 71 19t21 57v38h148q4 -38 4 -64q0 -92 -57.5 -145t-142.5 -53h-300v148h100q8 32 8 72q0 24 -28 80h-98v134h41q-17 41 -17 92
q0 96 62.5 153t166.5 57q103 0 164.5 -62t62.5 -164z" />
    <glyph glyph-name="currency" unicode="&#xa4;" horiz-adv-x="556" 
d="M158 362q0 -55 34.5 -91.5t85.5 -36.5t85.5 36.5t34.5 91.5t-34.5 91.5t-85.5 36.5t-85.5 -36.5t-34.5 -91.5zM474 622l64 -62l-54 -54q42 -61 42 -144t-42 -144l54 -54l-64 -62l-53 53q-62 -41 -143 -41q-82 0 -143 41l-53 -53l-64 62l54 54q-42 61 -42 144t42 144
l-54 54l64 62l53 -53q61 41 143 41t143 -41z" />
    <glyph glyph-name="yen" unicode="&#xa5;" horiz-adv-x="556" 
d="M512 504v-134h-134l-21 -50h155v-134h-163v-186h-142v186h-163v134h155l-23 50h-132v134h76l-96 220h156l97 -286h2l97 286h156l-96 -220h76z" />
    <glyph glyph-name="brokenbar" unicode="&#xa6;" horiz-adv-x="222" 
d="M50 -12v282h122v-282h-122zM50 454v282h122v-282h-122z" />
    <glyph glyph-name="section" unicode="&#xa7;" 
d="M411 656l-78 -62q-2 2 -7.5 8.5l-7.5 9t-7 8t-7.5 7.5l-7.5 6t-9 5.5t-9.5 4t-11.5 3t-12 0.5q-37 0 -37 -40q0 -17 24.5 -45.5t60 -61.5l71 -68t60 -74t24.5 -71q0 -41 -29 -78t-71 -46q44 -54 44 -114q0 -57 -42 -95.5t-111 -38.5q-95 0 -173 90l88 62q35 -62 80 -62
q21 0 32.5 12.5t11.5 33.5t-25 52t-61 65l-72 70.5t-61 78t-25 76.5q0 50 29.5 80t78.5 36q-48 53 -48 94q0 59 40 96.5t107 37.5q86 0 161 -80zM153 404q0 -25 66.5 -96.5t83.5 -71.5q41 0 41 34q0 25 -66.5 96.5t-83.5 71.5q-41 0 -41 -34z" />
    <glyph glyph-name="dieresis" unicode="&#xa8;" horiz-adv-x="278" 
d="M104 640h-126v112h126v-112zM300 640h-126v112h126v-112z" />
    <glyph glyph-name="copyright" unicode="&#xa9;" horiz-adv-x="800" 
d="M12 362q0 115 55.5 201.5t142.5 129.5t190 43t190 -43t142.5 -129.5t55.5 -201.5t-55.5 -201.5t-142.5 -129.5t-190 -43t-190 43t-142.5 129.5t-55.5 201.5zM136 362q0 -123 76 -201.5t188 -78.5t188 78.5t76 201.5t-76 201.5t-188 78.5t-188 -78.5t-76 -201.5zM498 308
h94q-9 -75 -59 -116.5t-119 -41.5q-92 0 -149 61.5t-57 154.5t57 154.5t149 61.5q69 0 116.5 -40.5t57.5 -115.5h-90q-11 62 -84 62q-43 0 -68.5 -31t-25.5 -91t25.5 -91t68.5 -31q80 0 84 64z" />
    <glyph glyph-name="ordfeminine" unicode="&#xaa;" horiz-adv-x="300" 
d="M184 523v71q0 54 -42 54t-42 -90t42 -90t42 55zM280 388h-88v32h-2q-20 -39 -69 -39q-53 0 -85 44.5t-32 132.5q0 87 30 132.5t87 45.5q56 0 70 -42h-1h2v35h88v-341z" />
    <glyph glyph-name="guillemotleft" unicode="&#xab;" horiz-adv-x="444" 
d="M122 466h116l-98 -182l98 -182h-116l-98 182zM304 466h116l-98 -182l98 -182h-116l-98 182z" />
    <glyph glyph-name="logicalnot" unicode="&#xac;" horiz-adv-x="600" 
d="M431 82v220h-384v122h506v-342h-122z" />
    <glyph glyph-name="registered" unicode="&#xae;" horiz-adv-x="800" 
d="M12 362q0 115 55.5 201.5t142.5 129.5t190 43t190 -43t142.5 -129.5t55.5 -201.5t-55.5 -201.5t-142.5 -129.5t-190 -43t-190 43t-142.5 129.5t-55.5 201.5zM136 362q0 -123 76 -201.5t188 -78.5t188 78.5t76 201.5t-76 201.5t-188 78.5t-188 -78.5t-76 -201.5zM340 330
v-168h-94v406h152q86 0 129 -27.5t43 -96.5q0 -53 -27 -81t-65 -31l92 -170h-108l-84 168h-38zM340 496v-94h82q21 0 35.5 12t14.5 35t-14.5 35t-35.5 12h-82z" />
    <glyph glyph-name="macron" unicode="&#xaf;" horiz-adv-x="278" 
d="M-28 736h334v-74h-334v74z" />
    <glyph glyph-name="macron" unicode="&#x2c9;" horiz-adv-x="278" 
d="M-28 736h334v-74h-334v74z" />
    <glyph glyph-name="degree" unicode="&#xb0;" horiz-adv-x="400" 
d="M286 588q0 38 -24.5 64t-61.5 26t-61.5 -26t-24.5 -64t24.5 -64t61.5 -26t61.5 26t24.5 64zM52 588q0 62 43 105t105 43t105 -43t43 -105t-43 -105t-105 -43t-105 43t-43 105z" />
    <glyph glyph-name="plusminus" unicode="&#xb1;" horiz-adv-x="600" 
d="M239 390v116h122v-116h192v-122h-192v-116h-122v116h-192v122h192zM47 0v122h506v-122h-506z" />
    <glyph glyph-name="twosuperior" unicode="&#xb2;" horiz-adv-x="333" 
d="M317 394v-100h-302v93q151 133 167 151q24 29 24 55q0 47 -40 47q-19 0 -32.5 -13t-13.5 -43h-106q0 76 41.5 114t111.5 38t111.5 -40t41.5 -104q0 -14 -1.5 -26t-6.5 -24l-8 -19.5t-14 -20t-15.5 -18t-21.5 -19.5l-24 -19.5l-30.5 -23.5l-33.5 -26v-2h152z" />
    <glyph glyph-name="threesuperior" unicode="&#xb3;" horiz-adv-x="333" 
d="M119 486v80h31q26 0 38 10t12 32q0 38 -38 38q-41 0 -41 -44h-104q0 64 40.5 99t110.5 35q65 0 103.5 -33t38.5 -89q0 -58 -55 -79v-2h4q71 -18 71 -112q0 -57 -43 -96t-111 -39q-79 0 -121.5 39t-42.5 106h104q0 -25 14 -40t40 -15q50 0 50 46q0 64 -64 64h-37z" />
    <glyph glyph-name="acute" unicode="&#xb4;" horiz-adv-x="278" 
d="M150 774h154l-148 -148h-100z" />
    <glyph glyph-name="mu" unicode="&#xb5;" 
d="M320 0v68h-2q-4 -29 -32 -54.5t-75 -25.5q-13 0 -19 2v-170h-134v748h134v-373q0 -73 50 -73q66 0 66 73v373h134v-568h-122z" />
    <glyph glyph-name="mu" unicode="&#x3bc;" 
d="M320 0v68h-2q-4 -29 -32 -54.5t-75 -25.5q-13 0 -19 2v-170h-134v748h134v-373q0 -73 50 -73q66 0 66 73v373h134v-568h-122z" />
    <glyph glyph-name="paragraph" unicode="&#xb6;" horiz-adv-x="620" 
d="M250 -80v444q-220 0 -220 180t220 180h300v-804h-124v714h-52v-714h-124z" />
    <glyph glyph-name="periodcentered" unicode="&#xb7;" horiz-adv-x="278" 
d="M63 253q0 31 22 53.5t54 22.5t54 -22.5t22 -53.5t-22 -53.5t-54 -22.5t-54 22.5t-22 53.5z" />
    <glyph glyph-name="periodcentered" unicode="&#x2219;" horiz-adv-x="278" 
d="M63 253q0 31 22 53.5t54 22.5t54 -22.5t22 -53.5t-22 -53.5t-54 -22.5t-54 22.5t-22 53.5z" />
    <glyph glyph-name="cedilla" unicode="&#xb8;" horiz-adv-x="278" 
d="M16 -208l20 50q44 -18 82 -18q20 0 34 11t14 25q0 15 -12.5 25.5t-28.5 10.5q-5 0 -45 -8l-22 18l60 94h54l-44 -66q33 6 34 6q37 0 63.5 -20t26.5 -55q0 -46 -37 -72.5t-83 -26.5q-56 0 -116 26z" />
    <glyph glyph-name="onesuperior" unicode="&#xb9;" horiz-adv-x="333" 
d="M126 638h-70v90h176v-434h-106v344z" />
    <glyph glyph-name="ordmasculine" unicode="&#xba;" horiz-adv-x="300" 
d="M195 558q0 55 -12 76.5t-35 21.5q-43 0 -43 -98t46 -98q44 0 44 98zM151 736q69 0 105.5 -50t36.5 -128t-36.5 -128t-105.5 -50q-70 0 -107 50t-37 128t37 128t107 50z" />
    <glyph glyph-name="guillemotright" unicode="&#xbb;" horiz-adv-x="444" 
d="M322 102h-116l98 182l-98 182h116l98 -182zM140 102h-116l98 182l-98 182h116l98 -182z" />
    <glyph glyph-name="onequarter" unicode="&#xbc;" horiz-adv-x="834" 
d="M655 294l-69 -121h71v121h-2zM757 434v-261h44v-90h-44v-83h-100v83h-170v86l168 265h102zM658 736l-367 -748h-94l367 748h94zM146 638h-70v90h176v-434h-106v344z" />
    <glyph glyph-name="onehalf" unicode="&#xbd;" horiz-adv-x="834" 
d="M798 100v-100h-302v93q151 133 167 151q24 29 24 55q0 47 -40 47q-19 0 -32.5 -13t-13.5 -43h-106q0 76 41.5 114t111.5 38t111.5 -40t41.5 -104q0 -14 -1.5 -26t-6.5 -24l-8 -19.5t-14 -20t-15.5 -18t-21.5 -19.5l-24 -19.5l-30.5 -23.5l-33.5 -26v-2h152zM630 736
l-367 -748h-94l367 748h94zM146 638h-70v90h176v-434h-106v344z" />
    <glyph glyph-name="threequarters" unicode="&#xbe;" horiz-adv-x="834" 
d="M655 294l-69 -121h71v121h-2zM757 434v-261h44v-90h-44v-83h-100v83h-170v86l168 265h102zM678 736l-367 -748h-94l367 748h94zM139 486v80h31q26 0 38 10t12 32q0 38 -38 38q-41 0 -41 -44h-104q0 64 40.5 99t110.5 35q65 0 103.5 -33t38.5 -89q0 -58 -55 -79v-2h4
q71 -18 71 -112q0 -57 -43 -96t-111 -39q-79 0 -121.5 39t-42.5 106h104q0 -25 14 -40t40 -15q50 0 50 46q0 64 -64 64h-37z" />
    <glyph glyph-name="questiondown" unicode="&#xbf;" 
d="M320 68h152v-36q0 -97 -58.5 -148.5t-160.5 -51.5q-91 0 -153 57.5t-62 148.5q0 44 16.5 80t40 59t47 43t40 43t16.5 49v64h148v-112q0 -40 -24 -75.5t-52 -56.5t-52 -47.5t-24 -52.5q0 -60 66 -60q26 0 43 18t17 53v25zM198 568h148v-152h-148v152z" />
    <glyph glyph-name="Agrave" unicode="&#xc0;" horiz-adv-x="556" 
d="M323 278l-46 234h-2l-46 -234h94zM344 724l210 -724h-154l-38 138h-170l-36 -138h-154l202 724h140zM113 915h154l94 -148h-100z" />
    <glyph glyph-name="Aacute" unicode="&#xc1;" horiz-adv-x="556" 
d="M323 278l-46 234h-2l-46 -234h94zM344 724l210 -724h-154l-38 138h-170l-36 -138h-154l202 724h140zM289 915h154l-148 -148h-100z" />
    <glyph glyph-name="Acircumflex" unicode="&#xc2;" horiz-adv-x="556" 
d="M323 278l-46 234h-2l-46 -234h94zM344 724l210 -724h-154l-38 138h-170l-36 -138h-154l202 724h140zM214 915h128l113 -148h-114l-63 84l-63 -84h-114z" />
    <glyph glyph-name="Atilde" unicode="&#xc3;" horiz-adv-x="556" 
d="M323 278l-46 234h-2l-46 -234h94zM344 724l210 -724h-154l-38 138h-170l-36 -138h-154l202 724h140zM397 905h64q-24 -122 -111 -122q-24 0 -76 18t-71 18q-17 0 -29.5 -13t-14.5 -29h-64q7 52 36.5 87t78.5 35q29 0 76 -18t63 -18q35 0 48 42z" />
    <glyph glyph-name="Adieresis" unicode="&#xc4;" horiz-adv-x="556" 
d="M323 278l-46 234h-2l-46 -234h94zM344 724l210 -724h-154l-38 138h-170l-36 -138h-154l202 724h140zM243 781h-126v112h126v-112zM439 781h-126v112h126v-112z" />
    <glyph glyph-name="Aring" unicode="&#xc5;" horiz-adv-x="556" 
d="M323 278l-46 234h-2l-46 -234h94zM344 724l210 -724h-154l-38 138h-170l-36 -138h-154l202 724h140zM228 887q0 -22 14 -36t36 -14t36 14t14 36t-14 36t-36 14t-36 -14t-14 -36zM164 887q0 47 33 80.5t81 33.5t81 -33.5t33 -80.5t-33 -80.5t-81 -33.5t-81 33.5t-33 80.5z
" />
    <glyph glyph-name="AE" unicode="&#xc6;" horiz-adv-x="889" 
d="M162 0h-174l356 724h460v-140h-244v-134h244v-140h-244v-170h244v-140h-396v138h-186zM280 278h128v306h-2z" />
    <glyph glyph-name="Ccedilla" unicode="&#xc7;" horiz-adv-x="611" 
d="M569 437h-156q-3 91 -27.5 125t-72.5 34q-57 0 -90.5 -56t-33.5 -178t33.5 -178t90.5 -56q37 0 60 23.5t30.5 54.5t9.5 75h156q-1 -128 -71.5 -210.5t-196.5 -82.5q-125 0 -196.5 95t-71.5 279t71.5 279t196.5 95q130 0 200 -84t68 -215zM183 -208l20 50q44 -18 82 -18
q20 0 34 11t14 25q0 15 -12.5 25.5t-28.5 10.5q-5 0 -45 -8l-22 18l60 94h54l-44 -66q33 6 34 6q37 0 63.5 -20t26.5 -55q0 -46 -37 -72.5t-83 -26.5q-56 0 -116 26z" />
    <glyph glyph-name="Egrave" unicode="&#xc8;" 
d="M430 0h-360v724h360v-140h-208v-134h208v-140h-208v-170h208v-140zM85 915h154l94 -148h-100z" />
    <glyph glyph-name="Eacute" unicode="&#xc9;" 
d="M430 0h-360v724h360v-140h-208v-134h208v-140h-208v-170h208v-140zM261 915h154l-148 -148h-100z" />
    <glyph glyph-name="Ecircumflex" unicode="&#xca;" 
d="M430 0h-360v724h360v-140h-208v-134h208v-140h-208v-170h208v-140zM186 915h128l113 -148h-114l-63 84l-63 -84h-114z" />
    <glyph glyph-name="Edieresis" unicode="&#xcb;" 
d="M430 0h-360v724h360v-140h-208v-134h208v-140h-208v-170h208v-140zM215 781h-126v112h126v-112zM411 781h-126v112h126v-112z" />
    <glyph glyph-name="Igrave" unicode="&#xcc;" horiz-adv-x="278" 
d="M63 724h152v-724h-152v724zM-26 915h154l94 -148h-100z" />
    <glyph glyph-name="Iacute" unicode="&#xcd;" horiz-adv-x="278" 
d="M63 724h152v-724h-152v724zM150 915h154l-148 -148h-100z" />
    <glyph glyph-name="Icircumflex" unicode="&#xce;" horiz-adv-x="278" 
d="M63 724h152v-724h-152v724zM75 915h128l113 -148h-114l-63 84l-63 -84h-114z" />
    <glyph glyph-name="Idieresis" unicode="&#xcf;" horiz-adv-x="278" 
d="M63 724h152v-724h-152v724zM104 781h-126v112h126v-112zM300 781h-126v112h126v-112z" />
    <glyph glyph-name="Eth" unicode="&#xd0;" horiz-adv-x="611" 
d="M4 450h58v274h228q135 0 211 -103t76 -259t-76 -259t-211 -103h-228v310h-58v140zM214 450h114v-140h-114v-170h74q64 0 98.5 60.5t34.5 161.5t-34.5 161.5t-98.5 60.5h-74v-134z" />
    <glyph glyph-name="Ntilde" unicode="&#xd1;" horiz-adv-x="611" 
d="M410 724h134v-724h-128l-214 482h-2v-482h-134v724h142l200 -444h2v444zM425 905h64q-24 -122 -111 -122q-24 0 -76 18t-71 18q-17 0 -29.5 -13t-14.5 -29h-64q7 52 36.5 87t78.5 35q29 0 76 -18t63 -18q35 0 48 42z" />
    <glyph glyph-name="Ograve" unicode="&#xd2;" horiz-adv-x="611" 
d="M33 362q0 174 69.5 274t202.5 100t202.5 -100t69.5 -274t-69.5 -274t-202.5 -100t-202.5 100t-69.5 274zM189 362q0 -125 28 -179.5t88 -54.5t88 54.5t28 179.5t-28 179.5t-88 54.5t-88 -54.5t-28 -179.5zM141 915h154l94 -148h-100z" />
    <glyph glyph-name="Oacute" unicode="&#xd3;" horiz-adv-x="611" 
d="M33 362q0 174 69.5 274t202.5 100t202.5 -100t69.5 -274t-69.5 -274t-202.5 -100t-202.5 100t-69.5 274zM189 362q0 -125 28 -179.5t88 -54.5t88 54.5t28 179.5t-28 179.5t-88 54.5t-88 -54.5t-28 -179.5zM317 915h154l-148 -148h-100z" />
    <glyph glyph-name="Ocircumflex" unicode="&#xd4;" horiz-adv-x="611" 
d="M33 362q0 174 69.5 274t202.5 100t202.5 -100t69.5 -274t-69.5 -274t-202.5 -100t-202.5 100t-69.5 274zM189 362q0 -125 28 -179.5t88 -54.5t88 54.5t28 179.5t-28 179.5t-88 54.5t-88 -54.5t-28 -179.5zM242 915h128l113 -148h-114l-63 84l-63 -84h-114z" />
    <glyph glyph-name="Otilde" unicode="&#xd5;" horiz-adv-x="611" 
d="M33 362q0 174 69.5 274t202.5 100t202.5 -100t69.5 -274t-69.5 -274t-202.5 -100t-202.5 100t-69.5 274zM189 362q0 -125 28 -179.5t88 -54.5t88 54.5t28 179.5t-28 179.5t-88 54.5t-88 -54.5t-28 -179.5zM425 905h64q-24 -122 -111 -122q-24 0 -76 18t-71 18
q-17 0 -29.5 -13t-14.5 -29h-64q7 52 36.5 87t78.5 35q29 0 76 -18t63 -18q35 0 48 42z" />
    <glyph glyph-name="Odieresis" unicode="&#xd6;" horiz-adv-x="611" 
d="M33 362q0 174 69.5 274t202.5 100t202.5 -100t69.5 -274t-69.5 -274t-202.5 -100t-202.5 100t-69.5 274zM189 362q0 -125 28 -179.5t88 -54.5t88 54.5t28 179.5t-28 179.5t-88 54.5t-88 -54.5t-28 -179.5zM271 781h-126v112h126v-112zM467 781h-126v112h126v-112z" />
    <glyph glyph-name="multiply" unicode="&#xd7;" horiz-adv-x="600" 
d="M134 506l166 -167l166 167l87 -88l-167 -165l167 -165l-87 -88l-166 167l-166 -167l-87 88l167 165l-167 165z" />
    <glyph glyph-name="Oslash" unicode="&#xd8;" horiz-adv-x="611" 
d="M195 273l180 294q-26 29 -70 29q-60 0 -88 -54.5t-28 -179.5q0 -39 4 -89h2zM415 451l-180 -294q25 -29 70 -29q60 0 88 54.5t28 179.5q0 41 -4 89h-2zM610 766l-91 -148q58 -95 58 -256q0 -174 -69.5 -274t-202.5 -100q-86 0 -147 44l-46 -74h-112l91 148
q-58 95 -58 256q0 174 69.5 274t202.5 100q87 0 147 -44l46 74h112z" />
    <glyph glyph-name="Ugrave" unicode="&#xd9;" horiz-adv-x="611" 
d="M397 724h152v-516q0 -102 -58.5 -161t-185.5 -59t-185.5 59t-58.5 161v516h152v-492q0 -55 21 -79.5t71 -24.5t71 24.5t21 79.5v492zM141 915h154l94 -148h-100z" />
    <glyph glyph-name="Uacute" unicode="&#xda;" horiz-adv-x="611" 
d="M397 724h152v-516q0 -102 -58.5 -161t-185.5 -59t-185.5 59t-58.5 161v516h152v-492q0 -55 21 -79.5t71 -24.5t71 24.5t21 79.5v492zM317 915h154l-148 -148h-100z" />
    <glyph glyph-name="Ucircumflex" unicode="&#xdb;" horiz-adv-x="611" 
d="M397 724h152v-516q0 -102 -58.5 -161t-185.5 -59t-185.5 59t-58.5 161v516h152v-492q0 -55 21 -79.5t71 -24.5t71 24.5t21 79.5v492zM242 915h128l113 -148h-114l-63 84l-63 -84h-114z" />
    <glyph glyph-name="Udieresis" unicode="&#xdc;" horiz-adv-x="611" 
d="M397 724h152v-516q0 -102 -58.5 -161t-185.5 -59t-185.5 59t-58.5 161v516h152v-492q0 -55 21 -79.5t71 -24.5t71 24.5t21 79.5v492zM271 781h-126v112h126v-112zM467 781h-126v112h126v-112z" />
    <glyph glyph-name="Yacute" unicode="&#xdd;" 
d="M152 724l97 -286h2l97 286h156l-178 -428v-296h-152v296l-178 428h156zM261 915h154l-148 -148h-100z" />
    <glyph glyph-name="Thorn" unicode="&#xde;" horiz-adv-x="556" 
d="M70 0v724h152v-122h58q108 0 175 -62.5t67 -173.5t-67 -173.5t-175 -62.5h-58v-130h-152zM222 462v-192h56q88 0 88 96t-88 96h-56z" />
    <glyph glyph-name="germandbls" unicode="&#xdf;" horiz-adv-x="556" 
d="M178 0h-118v526q0 190 225 190q97 0 149 -56.5t52 -142.5q0 -118 -102 -139v-2q138 -14 138 -176q0 -89 -57.5 -150.5t-156.5 -61.5q-96 0 -128 80h-2v-68zM236 299v124q9 0 22 1q86 7 86 86q0 80 -81 80q-69 0 -69 -73v-303h27q8 -100 76 -100q38 0 60.5 22t22.5 64
q0 91 -84 96q-50 3 -60 3z" />
    <glyph glyph-name="agrave" unicode="&#xe0;" 
d="M308 218v132q0 96 -72 96q-71 0 -71 -162t71 -162q72 0 72 96zM442 0h-122v54h-2q-33 -66 -108 -66q-81 0 -130 74.5t-49 221.5q0 144 46 220t133 76q86 0 108 -70h2v58h122v-568zM85 774h154l94 -148h-100z" />
    <glyph glyph-name="aacute" unicode="&#xe1;" 
d="M308 218v132q0 96 -72 96q-71 0 -71 -162t71 -162q72 0 72 96zM442 0h-122v54h-2q-33 -66 -108 -66q-81 0 -130 74.5t-49 221.5q0 144 46 220t133 76q86 0 108 -70h2v58h122v-568zM261 774h154l-148 -148h-100z" />
    <glyph glyph-name="acircumflex" unicode="&#xe2;" 
d="M308 218v132q0 96 -72 96q-71 0 -71 -162t71 -162q72 0 72 96zM442 0h-122v54h-2q-33 -66 -108 -66q-81 0 -130 74.5t-49 221.5q0 144 46 220t133 76q86 0 108 -70h2v58h122v-568zM186 774h128l113 -148h-114l-63 84l-63 -84h-114z" />
    <glyph glyph-name="atilde" unicode="&#xe3;" 
d="M308 218v132q0 96 -72 96q-71 0 -71 -162t71 -162q72 0 72 96zM442 0h-122v54h-2q-33 -66 -108 -66q-81 0 -130 74.5t-49 221.5q0 144 46 220t133 76q86 0 108 -70h2v58h122v-568zM369 764h64q-24 -122 -111 -122q-24 0 -76 18t-71 18q-17 0 -29.5 -13t-14.5 -29h-64
q7 52 36.5 87t78.5 35q29 0 76 -18t63 -18q35 0 48 42z" />
    <glyph glyph-name="adieresis" unicode="&#xe4;" 
d="M308 218v132q0 96 -72 96q-71 0 -71 -162t71 -162q72 0 72 96zM442 0h-122v54h-2q-33 -66 -108 -66q-81 0 -130 74.5t-49 221.5q0 144 46 220t133 76q86 0 108 -70h2v58h122v-568zM215 640h-126v112h126v-112zM411 640h-126v112h126v-112z" />
    <glyph glyph-name="aring" unicode="&#xe5;" 
d="M308 218v132q0 96 -72 96q-71 0 -71 -162t71 -162q72 0 72 96zM442 0h-122v54h-2q-33 -66 -108 -66q-81 0 -130 74.5t-49 221.5q0 144 46 220t133 76q86 0 108 -70h2v58h122v-568zM200 746q0 -22 14 -36t36 -14t36 14t14 36t-14 36t-36 14t-36 -14t-14 -36zM136 746
q0 47 33 80.5t81 33.5t81 -33.5t33 -80.5t-33 -80.5t-81 -33.5t-81 33.5t-33 80.5z" />
    <glyph glyph-name="ae" unicode="&#xe6;" horiz-adv-x="778" 
d="M314 218v132q0 96 -80 96q-84 0 -84 -162t84 -162q80 0 80 96zM448 342h172v24q0 46 -23.5 75t-67.5 29q-37 0 -59 -28.5t-22 -73.5v-26zM754 246h-306v-32q0 -100 76 -100q77 0 92 70h134q-15 -111 -72 -153.5t-142 -42.5q-61 0 -90 59h-2v-47h-122v47h-2
q-32 -59 -112 -59q-89 0 -140.5 74t-51.5 222q0 145 48.5 220.5t143.5 75.5q82 0 116 -62h2v50h122v-50h2q20 34 44.5 48t62.5 14q92 0 144.5 -75t52.5 -205v-54z" />
    <glyph glyph-name="ccedilla" unicode="&#xe7;" horiz-adv-x="444" 
d="M439 352h-142q-2 49 -17.5 75.5t-39.5 26.5q-33 0 -50 -38.5t-17 -131.5t17 -131.5t50 -38.5q50 0 57 102h142q-2 -88 -57 -158t-134 -70q-99 0 -158 78t-59 218t59 218t158 78q79 0 134 -70t57 -158zM99 -208l20 50q44 -18 82 -18q20 0 34 11t14 25q0 15 -12.5 25.5
t-28.5 10.5q-5 0 -45 -8l-22 18l60 94h54l-44 -66q33 6 34 6q37 0 63.5 -20t26.5 -55q0 -46 -37 -72.5t-83 -26.5q-56 0 -116 26z" />
    <glyph glyph-name="egrave" unicode="&#xe8;" 
d="M173 342h150v24q0 46 -18 75t-53 29q-36 0 -57.5 -29t-21.5 -73v-26zM457 246h-284v-32q0 -100 76 -100q55 0 70 70h134q-8 -58 -30 -98.5t-53 -60.5t-60 -28.5t-60 -8.5q-108 0 -163.5 81.5t-55.5 214.5t55.5 214.5t163.5 81.5q101 0 154 -74.5t53 -205.5v-54zM85 774
h154l94 -148h-100z" />
    <glyph glyph-name="eacute" unicode="&#xe9;" 
d="M173 342h150v24q0 46 -18 75t-53 29q-36 0 -57.5 -29t-21.5 -73v-26zM457 246h-284v-32q0 -100 76 -100q55 0 70 70h134q-8 -58 -30 -98.5t-53 -60.5t-60 -28.5t-60 -8.5q-108 0 -163.5 81.5t-55.5 214.5t55.5 214.5t163.5 81.5q101 0 154 -74.5t53 -205.5v-54zM261 774
h154l-148 -148h-100z" />
    <glyph glyph-name="ecircumflex" unicode="&#xea;" 
d="M173 342h150v24q0 46 -18 75t-53 29q-36 0 -57.5 -29t-21.5 -73v-26zM457 246h-284v-32q0 -100 76 -100q55 0 70 70h134q-8 -58 -30 -98.5t-53 -60.5t-60 -28.5t-60 -8.5q-108 0 -163.5 81.5t-55.5 214.5t55.5 214.5t163.5 81.5q101 0 154 -74.5t53 -205.5v-54zM186 774
h128l113 -148h-114l-63 84l-63 -84h-114z" />
    <glyph glyph-name="edieresis" unicode="&#xeb;" 
d="M173 342h150v24q0 46 -18 75t-53 29q-36 0 -57.5 -29t-21.5 -73v-26zM457 246h-284v-32q0 -100 76 -100q55 0 70 70h134q-8 -58 -30 -98.5t-53 -60.5t-60 -28.5t-60 -8.5q-108 0 -163.5 81.5t-55.5 214.5t55.5 214.5t163.5 81.5q101 0 154 -74.5t53 -205.5v-54zM215 640
h-126v112h126v-112zM411 640h-126v112h126v-112z" />
    <glyph glyph-name="igrave" unicode="&#xec;" horiz-adv-x="278" 
d="M206 0h-134v568h134v-568zM-26 774h154l94 -148h-100z" />
    <glyph glyph-name="iacute" unicode="&#xed;" horiz-adv-x="278" 
d="M206 0h-134v568h134v-568zM150 774h154l-148 -148h-100z" />
    <glyph glyph-name="icircumflex" unicode="&#xee;" horiz-adv-x="278" 
d="M206 0h-134v568h134v-568zM75 774h128l113 -148h-114l-63 84l-63 -84h-114z" />
    <glyph glyph-name="idieresis" unicode="&#xef;" horiz-adv-x="278" 
d="M206 0h-134v568h134v-568zM104 640h-126v112h126v-112zM300 640h-126v112h126v-112z" />
    <glyph glyph-name="eth" unicode="&#xf0;" 
d="M173 227q0 -76 19.5 -105.5t59.5 -29.5q37 0 56 29.5t19 105.5t-19.5 105.5t-59.5 29.5q-37 0 -56 -29.5t-19 -105.5zM121 678l52 58q62 -26 111 -74l123 74l45 -70l-110 -66q59 -76 93 -170.5t34 -185.5q0 -116 -55.5 -185t-163.5 -69q-107 0 -163 66.5t-56 170.5
t56 170.5t163 66.5q17 0 34 -4q-15 44 -40 81l-106 -63l-45 70l102 61q-36 41 -74 69z" />
    <glyph glyph-name="ntilde" unicode="&#xf1;" 
d="M174 568v-54h2q16 33 42.5 49.5t74.5 16.5q68 0 108.5 -42t40.5 -124v-414h-134v374q0 72 -55 72q-61 0 -61 -62v-384h-134v568h116zM369 764h64q-24 -122 -111 -122q-24 0 -76 18t-71 18q-17 0 -29.5 -13t-14.5 -29h-64q7 52 36.5 87t78.5 35q29 0 76 -18t63 -18
q35 0 48 42z" />
    <glyph glyph-name="ograve" unicode="&#xf2;" 
d="M173 284q0 -95 20 -132.5t59 -37.5q37 0 56 37.5t19 132.5t-20 132.5t-59 37.5q-37 0 -56 -37.5t-19 -132.5zM31 284q0 130 56 213t163 83t163 -83t56 -213t-56 -213t-163 -83t-163 83t-56 213zM85 774h154l94 -148h-100z" />
    <glyph glyph-name="oacute" unicode="&#xf3;" 
d="M173 284q0 -95 20 -132.5t59 -37.5q37 0 56 37.5t19 132.5t-20 132.5t-59 37.5q-37 0 -56 -37.5t-19 -132.5zM31 284q0 130 56 213t163 83t163 -83t56 -213t-56 -213t-163 -83t-163 83t-56 213zM261 774h154l-148 -148h-100z" />
    <glyph glyph-name="ocircumflex" unicode="&#xf4;" 
d="M173 284q0 -95 20 -132.5t59 -37.5q37 0 56 37.5t19 132.5t-20 132.5t-59 37.5q-37 0 -56 -37.5t-19 -132.5zM31 284q0 130 56 213t163 83t163 -83t56 -213t-56 -213t-163 -83t-163 83t-56 213zM186 774h128l113 -148h-114l-63 84l-63 -84h-114z" />
    <glyph glyph-name="otilde" unicode="&#xf5;" 
d="M173 284q0 -95 20 -132.5t59 -37.5q37 0 56 37.5t19 132.5t-20 132.5t-59 37.5q-37 0 -56 -37.5t-19 -132.5zM31 284q0 130 56 213t163 83t163 -83t56 -213t-56 -213t-163 -83t-163 83t-56 213zM369 764h64q-24 -122 -111 -122q-24 0 -76 18t-71 18q-17 0 -29.5 -13
t-14.5 -29h-64q7 52 36.5 87t78.5 35q29 0 76 -18t63 -18q35 0 48 42z" />
    <glyph glyph-name="odieresis" unicode="&#xf6;" 
d="M173 284q0 -95 20 -132.5t59 -37.5q37 0 56 37.5t19 132.5t-20 132.5t-59 37.5q-37 0 -56 -37.5t-19 -132.5zM31 284q0 130 56 213t163 83t163 -83t56 -213t-56 -213t-163 -83t-163 83t-56 213zM215 640h-126v112h126v-112zM411 640h-126v112h126v-112z" />
    <glyph glyph-name="divide" unicode="&#xf7;" horiz-adv-x="600" 
d="M553 192h-506v122h506v-122zM301 553q37 0 65 -27.5t28 -65.5t-28 -65.5t-65 -27.5t-65 27.5t-28 65.5t28 65.5t65 27.5zM300 139q37 0 65 -27.5t28 -65.5t-28 -65.5t-65 -27.5t-65 27.5t-28 65.5t28 65.5t65 27.5z" />
    <glyph glyph-name="oslash" unicode="&#xf8;" 
d="M178 216l115 221q-16 17 -45 17q-37 0 -56 -37.5t-19 -132.5q0 -41 3 -68h2zM495 646l-80 -152q54 -79 54 -210q0 -130 -56 -213t-163 -83q-53 0 -95 22l-48 -92h-102l84 152q-58 79 -58 214q0 130 56 213t163 83q53 0 96 -23l47 89h102zM323 344l-114 -214
q16 -16 43 -16q37 0 56 37.5t19 132.5q0 26 -2 60h-2z" />
    <glyph glyph-name="ugrave" unicode="&#xf9;" 
d="M320 0v68h-2q-4 -29 -32 -54.5t-75 -25.5q-69 0 -111 43.5t-42 120.5v416h134v-373q0 -73 50 -73q66 0 66 73v373h134v-568h-122zM85 774h154l94 -148h-100z" />
    <glyph glyph-name="uacute" unicode="&#xfa;" 
d="M320 0v68h-2q-4 -29 -32 -54.5t-75 -25.5q-69 0 -111 43.5t-42 120.5v416h134v-373q0 -73 50 -73q66 0 66 73v373h134v-568h-122zM261 774h154l-148 -148h-100z" />
    <glyph glyph-name="ucircumflex" unicode="&#xfb;" 
d="M320 0v68h-2q-4 -29 -32 -54.5t-75 -25.5q-69 0 -111 43.5t-42 120.5v416h134v-373q0 -73 50 -73q66 0 66 73v373h134v-568h-122zM186 774h128l113 -148h-114l-63 84l-63 -84h-114z" />
    <glyph glyph-name="udieresis" unicode="&#xfc;" 
d="M320 0v68h-2q-4 -29 -32 -54.5t-75 -25.5q-69 0 -111 43.5t-42 120.5v416h134v-373q0 -73 50 -73q66 0 66 73v373h134v-568h-122zM215 640h-126v112h126v-112zM411 640h-126v112h126v-112z" />
    <glyph glyph-name="yacute" unicode="&#xfd;" horiz-adv-x="444" 
d="M301 568h140l-216 -748h-136l68 214l-154 534h140l80 -328h2zM233 774h154l-148 -148h-100z" />
    <glyph glyph-name="thorn" unicode="&#xfe;" 
d="M192 336v-104q0 -54 19 -82t53 -28q38 0 54.5 39t16.5 123t-16.5 123t-54.5 39q-34 0 -53 -28t-19 -82zM58 724h135v-188h2q3 14 29 29t66 15q81 0 130 -74.5t49 -221.5q0 -144 -46 -220t-133 -76q-69 0 -96 54h-2v-222h-134v904z" />
    <glyph glyph-name="ydieresis" unicode="&#xff;" horiz-adv-x="444" 
d="M301 568h140l-216 -748h-136l68 214l-154 534h140l80 -328h2zM187 640h-126v112h126v-112zM383 640h-126v112h126v-112z" />
    <glyph glyph-name="dotlessi" unicode="&#x131;" horiz-adv-x="278" 
d="M206 0h-134v568h134v-568z" />
    <glyph glyph-name="Lslash" unicode="&#x141;" horiz-adv-x="444" 
d="M222 309v-169h194v-140h-346v248l-63 -26v116l63 26v360h152v-299l135 55l-1 -117z" />
    <glyph glyph-name="lslash" unicode="&#x142;" horiz-adv-x="278" 
d="M206 407v-407h-134v300l-76 -60v108l76 60v316h134v-209l76 61v-108z" />
    <glyph glyph-name="OE" unicode="&#x152;" horiz-adv-x="889" 
d="M434 362q0 72 -9 119.5t-26.5 72t-38 33.5t-49.5 9q-51 0 -86.5 -59.5t-35.5 -174.5q0 -116 36 -175t89 -59q28 0 48 9t37 33t26 72t9 120zM819 724v-140h-233v-134h233v-140h-233v-170h233v-140h-363v68h-2q-41 -80 -153 -80q-119 0 -193.5 95t-74.5 279t74.5 279
t193.5 95q111 0 153 -76h2v64h363z" />
    <glyph glyph-name="oe" unicode="&#x153;" horiz-adv-x="778" 
d="M170 284q0 -95 20 -132.5t59 -37.5t59 37.5t20 132.5q0 96 -20.5 133t-62.5 37q-37 0 -56 -37.5t-19 -132.5zM462 342h158v24q0 46 -20.5 75t-58.5 29q-36 0 -57.5 -29t-21.5 -73v-26zM754 246h-292v-32q0 -100 76 -100q63 0 78 70h134q-8 -58 -30 -98.5t-53 -60.5
t-60 -28.5t-60 -8.5q-111 0 -157 92q-38 -92 -154 -92q-100 0 -154 83.5t-54 212.5q0 130 55 213t159 83q110 0 149 -85q44 85 161 85q98 0 150 -74.5t52 -205.5v-54z" />
    <glyph glyph-name="Scaron" unicode="&#x160;" horiz-adv-x="556" 
d="M34 228h152q2 -54 23.5 -80t70.5 -26q41 0 63.5 23t22.5 63q0 24 -17.5 42t-46 29.5t-62.5 23t-68 27t-62.5 37.5t-46 59t-17.5 86q0 103 61 163.5t166 60.5q103 0 161 -50t74 -156h-148q-2 37 -23 58.5t-58 21.5q-35 0 -56 -22.5t-21 -56.5q0 -26 17.5 -44t46 -29.5
t62.5 -22t68 -27.5t62.5 -40t46 -64.5t17.5 -97.5q0 -100 -68.5 -159t-176.5 -59q-243 0 -243 240zM342 767h-128l-113 148h114l63 -84l63 84h114z" />
    <glyph glyph-name="scaron" unicode="&#x161;" horiz-adv-x="444" 
d="M12 182h134q2 -32 23 -52t54 -20q55 0 55 57q0 22 -19 36.5t-47.5 20.5t-61.5 18.5t-61.5 29t-47.5 53.5t-19 90q0 74 50.5 119.5t143.5 45.5q177 0 190 -180h-134q-3 64 -60 64q-23 0 -35.5 -12t-12.5 -32q0 -22 19 -36t47.5 -19.5t61.5 -17t61.5 -28t47.5 -53.5t19 -92
q0 -80 -57 -133t-144 -53q-86 0 -142 48.5t-65 145.5zM286 626h-128l-113 148h114l63 -84l63 84h114z" />
    <glyph glyph-name="Ydieresis" unicode="&#x178;" 
d="M152 724l97 -286h2l97 286h156l-178 -428v-296h-152v296l-178 428h156zM215 781h-126v112h126v-112zM411 781h-126v112h126v-112z" />
    <glyph glyph-name="Zcaron" unicode="&#x17d;" 
d="M278 584h-220v140h398v-140l-244 -444h244v-140h-420v134zM314 767h-128l-113 148h114l63 -84l63 84h114z" />
    <glyph glyph-name="zcaron" unicode="&#x17e;" horiz-adv-x="444" 
d="M396 0h-368v126l208 316h-188v126h348v-126l-204 -316h204v-126zM286 626h-128l-113 148h114l63 -84l63 84h114z" />
    <glyph glyph-name="florin" unicode="&#x192;" horiz-adv-x="556" 
d="M9 -176l30 136q36 -12 65 -12q87 0 91 121l8 249h-138l8 116h132q10 160 68 231t162 71q54 0 112 -16l-30 -136q-48 12 -60 12q-54 0 -77 -33.5t-27 -128.5h146l-8 -116h-140l-8 -208q-12 -302 -228 -302q-40 0 -106 16z" />
    <glyph glyph-name="circumflex" unicode="&#x2c6;" horiz-adv-x="278" 
d="M75 774h128l113 -148h-114l-63 84l-63 -84h-114z" />
    <glyph glyph-name="caron" unicode="&#x2c7;" horiz-adv-x="278" 
d="M203 626h-128l-113 148h114l63 -84l63 84h114z" />
    <glyph glyph-name="breve" unicode="&#x2d8;" horiz-adv-x="278" 
d="M242 774h64q-16 -144 -173 -144q-71 0 -114 37t-47 107h64q11 -70 105 -70q90 0 101 70z" />
    <glyph glyph-name="dotaccent" unicode="&#x2d9;" horiz-adv-x="278" 
d="M202 640h-126v112h126v-112z" />
    <glyph glyph-name="ring" unicode="&#x2da;" horiz-adv-x="278" 
d="M89 746q0 -22 14 -36t36 -14t36 14t14 36t-14 36t-36 14t-36 -14t-14 -36zM25 746q0 47 33 80.5t81 33.5t81 -33.5t33 -80.5t-33 -80.5t-81 -33.5t-81 33.5t-33 80.5z" />
    <glyph glyph-name="ogonek" unicode="&#x2db;" horiz-adv-x="278" 
d="M253 22v-12q-142 -56 -142 -126q0 -42 53 -42q50 0 97 34l20 -36q-89 -56 -152 -56q-45 0 -74.5 23t-29.5 66q0 30 17 54.5t39.5 39t58 27t58.5 17.5t55 11z" />
    <glyph glyph-name="tilde" unicode="&#x2dc;" horiz-adv-x="278" 
d="M258 764h64q-24 -122 -111 -122q-24 0 -76 18t-71 18q-17 0 -29.5 -13t-14.5 -29h-64q7 52 36.5 87t78.5 35q29 0 76 -18t63 -18q35 0 48 42z" />
    <glyph glyph-name="hungarumlaut" unicode="&#x2dd;" horiz-adv-x="278" 
d="M48 774h154l-132 -148h-92zM232 774h154l-148 -148h-100z" />
    <glyph glyph-name="endash" unicode="&#x2013;" 
d="M500 239h-500v90h500v-90z" />
    <glyph glyph-name="emdash" unicode="&#x2014;" horiz-adv-x="1000" 
d="M1000 239h-1000v90h1000v-90z" />
    <glyph glyph-name="quoteleft" unicode="&#x2018;" horiz-adv-x="222" 
d="M-6 736h142l84 -250h-120z" />
    <glyph glyph-name="quoteright" unicode="&#x2019;" horiz-adv-x="222" 
d="M86 736h142l-106 -250h-120z" />
    <glyph glyph-name="quotesinglbase" unicode="&#x201a;" horiz-adv-x="222" 
d="M86 148h142l-106 -250h-120z" />
    <glyph glyph-name="quotedblleft" unicode="&#x201c;" horiz-adv-x="444" 
d="M12 736h142l84 -250h-120zM197 736h142l84 -250h-120z" />
    <glyph glyph-name="quotedblright" unicode="&#x201d;" horiz-adv-x="444" 
d="M290 736h142l-106 -250h-120zM105 736h142l-106 -250h-120z" />
    <glyph glyph-name="quotedblbase" unicode="&#x201e;" horiz-adv-x="444" 
d="M290 148h142l-106 -250h-120zM105 148h142l-106 -250h-120z" />
    <glyph glyph-name="dagger" unicode="&#x2020;" 
d="M54 442v126l172 -40l-42 196h132l-42 -196l172 40v-126l-172 40l42 -164l-42 -398h-48l-42 398l42 164z" />
    <glyph glyph-name="daggerdbl" unicode="&#x2021;" 
d="M54 70v126l172 -40l-42 166l42 166l-172 -40v126l172 -40l-42 190h132l-42 -190l172 40v-126l-172 40l42 -166l-42 -166l172 40v-126l-172 40l42 -190h-132l42 190z" />
    <glyph glyph-name="bullet" unicode="&#x2022;" 
d="M69 362q-1 75 52 128t129 53t129 -53t52 -128q1 -75 -52 -128t-129 -53t-129 53t-52 128z" />
    <glyph glyph-name="ellipsis" unicode="&#x2026;" horiz-adv-x="1000" 
d="M234 0h-134v148h134v-148zM567 0h-134v148h134v-148zM900 0h-134v148h134v-148z" />
    <glyph glyph-name="perthousand" unicode="&#x2030;" horiz-adv-x="1000" 
d="M22 555q0 89 42 135t108 46t108 -46t42 -135t-42 -135t-108 -46t-108 46t-42 135zM112 555q0 -93 60 -93t60 93t-60 93t-60 -93zM336 169q0 89 42 135t108 46t108 -46t42 -135t-42 -135t-108 -46t-108 46t-42 135zM426 169q0 -93 60 -93t60 93t-60 93t-60 -93zM678 169
q0 89 42 135t108 46t108 -46t42 -135t-42 -135t-108 -46t-108 46t-42 135zM768 169q0 -93 60 -93t60 93t-60 93t-60 -93zM188 -12h-74l360 748h74z" />
    <glyph glyph-name="guilsinglleft" unicode="&#x2039;" horiz-adv-x="278" 
d="M130 466h116l-98 -182l98 -182h-116l-98 182z" />
    <glyph glyph-name="guilsinglright" unicode="&#x203a;" horiz-adv-x="278" 
d="M148 102h-116l98 182l-98 182h116l98 -182z" />
    <glyph glyph-name="fraction" unicode="&#x2044;" horiz-adv-x="167" 
d="M334 736l-407 -748h-94l407 748h94z" />
    <glyph glyph-name="fraction" unicode="&#x2215;" horiz-adv-x="167" 
d="M334 736l-407 -748h-94l407 748h94z" />
    <glyph glyph-name="Euro" unicode="&#x20ac;" horiz-adv-x="556" 
d="M510 699v-139q-41 45 -128 45q-117 0 -137 -122h233l-31 -94h-213q0 -3 -0.5 -12t-0.5 -14q0 -7 0.5 -18t0.5 -14h193l-31 -94h-150q20 -118 137 -118q82 0 127 43v-138q-44 -35 -151 -35q-226 0 -264 248h-78l31 94h39q-2 16 -2 31q0 11 2 27h-70l31 94h46
q42 253 265 253q51 0 91.5 -11.5t59.5 -25.5z" />
    <glyph glyph-name="trademark" unicode="&#x2122;" horiz-adv-x="1000" 
d="M376 724v-96h-116v-330h-124v330h-116v96h356zM587 724l92 -246l92 246h161v-426h-112v278h-2l-94 -278h-91l-94 278h-2v-278h-112v426h162z" />
    <glyph glyph-name="minus" unicode="&#x2212;" horiz-adv-x="600" 
d="M47 192v122h506v-122h-506z" />
    <glyph glyph-name="fi" unicode="&#xfb01;" horiz-adv-x="556" 
d="M286 724v-112h-40q-22 0 -31 -7.5t-9 -27.5v-9h80v-126h-74v-442h-134v442h-52v126h52v10q0 75 38 110.5t114 35.5h56zM484 0h-134v568h134v-568zM484 612h-134v112h134v-112z" />
    <glyph glyph-name="fl" unicode="&#xfb02;" horiz-adv-x="556" 
d="M350 0v724h134v-724h-134zM286 724v-112h-40q-22 0 -31 -7.5t-9 -27.5v-9h80v-126h-74v-442h-134v442h-52v126h52v10q0 75 38 110.5t114 35.5h56z" />
    </font>
</defs>
</svg>
